<?xml version="1.0" encoding="utf-8"?>
<!-- Generator: Adobe Illustrator 26.5.2, SVG Export Plug-In . SVG Version: 6.00 Build 0)  -->
<svg version="1.1" id="Capa_1" xmlns="http://www.w3.org/2000/svg" xmlns:xlink="http://www.w3.org/1999/xlink" x="0px" y="0px"
	 viewBox="0 0 450 450" style="enable-background:new 0 0 450 450;" xml:space="preserve">
<style type="text/css">
	.st0{fill:#FFFFFF;}
</style>
<g>
	<g>
		<path class="st0" d="M168.87,86.2h29.11v50.62h16.49v7.6h-45.6V86.2z"/>
		<path class="st0" d="M230.96,139.78l-2.05,4.64h-8.74l22.12-58.22h14.36l23.48,58.22h-30.02l-2.2-4.64H230.96z M245.24,130.89
			l-4.56-16.11l-6.16,16.11H245.24z"/>
	</g>
	<g>
		<polygon class="st0" points="80.62,275.13 97.89,275.13 97.89,264.84 80.62,264.84 80.62,242.63 97.89,242.63 97.89,232.34 
			41.22,232.34 41.22,311.13 80.62,311.13 		"/>
		<polygon class="st0" points="261.31,232.34 261.31,263.09 228.81,232.34 201.25,232.34 201.25,311.13 213.07,311.13 
			213.07,275.13 249.28,311.13 273.34,311.13 273.14,232.34 		"/>
		<polygon class="st0" points="331.03,242.63 343.07,242.63 343.07,232.34 279.61,232.34 279.61,242.63 291.64,242.63 
			291.64,311.13 331.03,311.13 		"/>
		<polygon class="st0" points="348.94,311.13 407.77,311.13 407.77,300.84 388.33,300.84 388.33,275.13 405.61,275.13 
			405.61,264.84 388.33,264.84 388.33,242.63 405.61,242.63 405.61,232.34 348.94,232.34 		"/>
		<path class="st0" d="M180.69,242.42c-8.98-7.34-19.41-11.01-31.27-11.01c-11.93,0-22.36,3.67-31.27,11.01
			c-9.4,7.82-14.09,17.59-14.09,29.31c0,11.86,4.66,21.7,13.99,29.52c8.78,7.27,19.23,10.9,31.37,10.9c12.2,0,22.66-3.63,31.37-10.9
			c9.39-7.95,14.09-17.79,14.09-29.52S190.15,250.24,180.69,242.42z M155.7,291.69c0,4.11-0.51,6.79-1.54,8.02
			c-0.62,0.76-2.06,1.13-4.32,1.13c-2.88,0-4.73-0.86-5.55-2.57c-0.55-1.23-0.82-3.43-0.82-6.58v-38.98c0-4.32,0.58-7.23,1.75-8.74
			c0.68-0.89,2.23-1.34,4.63-1.34c2.12,0,3.56,0.41,4.32,1.23c1.03,1.37,1.54,4.46,1.54,9.26V291.69z"/>
	</g>
	<g>
		<rect x="324.46" y="158.66" class="st0" width="29.23" height="58.45"/>
		<polygon class="st0" points="277.84,158.66 248.62,158.66 248.62,217.12 277.69,217.12 277.69,191.63 286.92,191.63 
			286.92,217.12 316,217.12 316,158.66 286.92,158.66 286.92,182.85 277.84,182.85 		"/>
		<path class="st0" d="M150.22,166.14c-6.81,5.75-10.23,13-10.23,21.75c0,8.8,3.41,16.1,10.23,21.9c6.46,5.39,14.19,8.09,23.2,8.09
			c1.58,0,3.1-0.05,4.58-0.15c1.47-0.1,2.92-0.26,4.35-0.46c1.58-0.2,4.4-0.66,8.47-1.37v-8.93c-4.37,1.68-10,2.52-16.86,2.52
			c-3.15,0-4.73-2.14-4.73-6.41v-29.15c0-3.97,1.6-6.46,4.81-7.48c1.43-0.46,2.88-0.69,4.35-0.69c3.46,0,7.61,0.76,12.44,2.29v-7.55
			c-3.36-1.68-8.29-2.52-14.8-2.52h-2.59C164.46,157.98,156.73,160.7,150.22,166.14"/>
		<polygon class="st0" points="134.69,158.66 92.65,158.66 92.65,217.12 136.3,217.12 136.3,209.49 121.87,209.49 121.87,190.41 
			134.69,190.41 134.69,182.78 121.87,182.78 121.87,166.29 134.69,166.29 		"/>
		<polygon class="st0" points="59.56,158.66 29.5,158.66 53.08,217.12 67.35,217.12 89.7,158.66 80.78,158.66 70.63,181.17 		"/>
		<path class="st0" d="M202.75,166.14c-6.82,5.75-10.23,13-10.23,21.75c0,8.8,3.41,16.1,10.23,21.9c6.46,5.39,14.19,8.09,23.2,8.09
			c1.58,0,3.1-0.05,4.58-0.15c1.47-0.1,2.92-0.26,4.35-0.46c1.58-0.2,4.4-0.66,8.47-1.37v-8.93c-4.38,1.68-10,2.52-16.86,2.52
			c-3.16,0-4.73-2.14-4.73-6.41v-29.15c0-3.97,1.6-6.46,4.81-7.48c1.42-0.46,2.87-0.69,4.35-0.69c3.46,0,7.6,0.76,12.44,2.29v-7.55
			c-3.36-1.68-8.29-2.52-14.8-2.52h-2.59C217,157.98,209.26,160.7,202.75,166.14"/>
		<path class="st0" d="M395.92,158.66H381.5l-22.21,58.45h8.78l2.06-4.65h17.02l2.21,4.65h30.14L395.92,158.66z M373.71,203.53
			l6.18-16.18l4.58,16.18H373.71z"/>
	</g>
	<g>
		<path class="st0" d="M65.15,354.47c-0.7,2.77-2.11,5.06-4.22,6.78c-2.11,1.72-4.71,2.55-7.83,2.55c-3.83,0-7.13-1.36-9.86-4.14
			c-2.68-2.77-4.05-6.65-4.05-11.62s1.36-8.84,4.05-11.62c2.73-2.77,6.03-4.14,9.86-4.14c3.12,0,5.72,0.88,7.83,2.6
			c2.11,1.72,3.52,3.96,4.22,6.73l-3.74,1.1c-1.45-4.49-4.22-6.73-8.32-6.73c-2.95,0-5.32,1.06-7.17,3.12
			c-1.8,2.07-2.73,5.06-2.73,8.93c0,3.87,0.92,6.87,2.73,8.93c1.85,2.07,4.22,3.12,7.17,3.12c4.09,0,6.87-2.24,8.32-6.73
			L65.15,354.47z"/>
		<path class="st0" d="M85.26,332.64h3.7l10.65,30.8h-3.87L93,355.22H81.21l-2.73,8.23h-3.87L85.26,332.64z M87.11,337.66
			l-4.66,13.86h9.33L87.11,337.66z"/>
		<path class="st0" d="M123.41,339.24c-1.41-2.51-2.82-3.26-4.88-3.26c-2.11,0-3.7,1.76-3.7,3.83c0,1.45,0.44,2.51,1.8,3.57
			c0.7,0.48,1.28,0.88,1.76,1.14l2.38,1.23c1.76,0.88,2.6,1.32,4.05,2.42c2.07,1.54,3.17,3.34,3.3,6.42c0,2.46-0.79,4.58-2.38,6.29
			c-1.76,1.94-4.05,2.9-6.86,2.9c-2.51,0-4.67-0.79-6.47-2.33c-1.8-1.54-2.95-3.56-3.48-5.98l3.34-2.02
			c1.19,4.18,2.95,6.64,6.6,6.64c1.8,0,3.17-0.57,4.18-1.76c0.79-0.97,1.19-2.2,1.19-3.65c0-2.68-2.11-4.22-5.81-5.99
			c-2.42-1.1-3.61-1.8-5.19-3.17c-1.58-1.41-2.29-3.12-2.29-5.41c0-2.24,0.75-4.09,2.25-5.59c1.5-1.5,3.26-2.24,5.32-2.24
			c4.09,0,6.38,1.76,8.01,4.93L123.41,339.24z"/>
		<path class="st0" d="M147.87,332.64h3.7l10.65,30.8h-3.87l-2.73-8.23h-11.79l-2.73,8.23h-3.87L147.87,332.64z M149.72,337.66
			l-4.67,13.86h9.33L149.72,337.66z"/>
		<path class="st0" d="M209.08,332.64h4.09l-10.61,30.8h-3.87l-10.61-30.8h4.09l8.45,25.3L209.08,332.64z"/>
		<path class="st0" d="M228.57,332.64h3.7l10.65,30.8h-3.87l-2.73-8.23h-11.79l-2.73,8.23h-3.87L228.57,332.64z M230.41,337.66
			l-4.67,13.86h9.33L230.41,337.66z"/>
		<path class="st0" d="M277.85,354.47c-0.7,2.77-2.11,5.06-4.22,6.78c-2.11,1.72-4.71,2.55-7.83,2.55c-3.83,0-7.13-1.36-9.86-4.14
			c-2.68-2.77-4.05-6.65-4.05-11.62s1.36-8.84,4.05-11.62c2.73-2.77,6.03-4.14,9.86-4.14c3.12,0,5.72,0.88,7.83,2.6
			c2.11,1.72,3.52,3.96,4.22,6.73l-3.74,1.1c-1.45-4.49-4.22-6.73-8.32-6.73c-2.95,0-5.32,1.06-7.17,3.12
			c-1.8,2.07-2.73,5.06-2.73,8.93c0,3.87,0.92,6.87,2.73,8.93c1.85,2.07,4.22,3.12,7.17,3.12c4.09,0,6.87-2.24,8.32-6.73
			L277.85,354.47z"/>
		<path class="st0" d="M297.95,332.64h3.7l10.65,30.8h-3.87l-2.73-8.23h-11.79l-2.73,8.23h-3.87L297.95,332.64z M299.8,337.66
			l-4.67,13.86h9.33L299.8,337.66z"/>
		<path class="st0" d="M341.65,332.64h3.87v30.8h-4.53l-13.91-23.98v23.98h-3.87v-30.8h4.53l13.91,24.07V332.64z"/>
		<path class="st0" d="M358.89,336.34v-3.7h19.32v1.85l-14.35,25.26h14.79v3.7h-20.29v-1.85l14.35-25.26H358.89z"/>
		<path class="st0" d="M391.67,332.64h17.69v3.7h-13.82v8.84h11.18v3.7h-11.18v10.87h14.26v3.7h-18.13V332.64z"/>
	</g>
</g>
</svg>
