<?xml version="1.0" encoding="UTF-8"?>
<svg xmlns="http://www.w3.org/2000/svg" xmlns:xlink="http://www.w3.org/1999/xlink" width="32px" height="32px" viewBox="0 0 32 32" version="1.1">
<g id="surface1">
<path style=" stroke:none;fill-rule:nonzero;fill:rgb(0%,0%,0%);fill-opacity:1;" d="M 0 16 L 0 32 L 32 32 L 32 0 L 0 0 Z M 14.078125 7.960938 L 14.078125 9.761719 L 15.289062 9.761719 L 15.265625 10.015625 L 15.238281 10.28125 L 12.039062 10.28125 L 12.015625 8.214844 L 12 6.160156 L 14.078125 6.160156 Z M 19.097656 8.183594 C 19.542969 9.289062 19.878906 10.230469 19.847656 10.265625 C 19.816406 10.296875 19.335938 10.3125 18.792969 10.304688 C 17.847656 10.28125 17.792969 10.273438 17.71875 10.097656 C 17.648438 9.9375 17.585938 9.921875 17.039062 9.921875 C 16.496094 9.921875 16.433594 9.9375 16.359375 10.097656 C 16.304688 10.230469 16.199219 10.289062 15.96875 10.304688 C 15.734375 10.328125 15.671875 10.304688 15.695312 10.222656 C 15.71875 10.167969 16.070312 9.230469 16.480469 8.136719 L 17.230469 6.160156 L 18.28125 6.160156 Z M 4.617188 12.039062 C 4.824219 12.457031 5.015625 12.800781 5.039062 12.800781 C 5.0625 12.800781 5.222656 12.472656 5.398438 12.070312 C 5.566406 11.671875 5.753906 11.328125 5.808594 11.304688 C 5.863281 11.289062 6.007812 11.28125 6.144531 11.296875 L 6.375 11.320312 L 5.601562 13.359375 L 4.824219 15.398438 L 4.289062 15.425781 C 4 15.441406 3.761719 15.433594 3.761719 15.414062 C 3.761719 15.398438 3.382812 14.457031 2.929688 13.328125 L 2.097656 11.28125 L 4.238281 11.28125 Z M 9.601562 11.558594 L 9.601562 11.839844 L 8.640625 11.839844 L 8.640625 13.039062 L 9.601562 13.039062 L 9.601562 13.519531 L 8.640625 13.519531 L 8.640625 14.878906 L 9.679688 14.878906 L 9.679688 15.441406 L 6.558594 15.441406 L 6.558594 11.28125 L 9.601562 11.28125 Z M 13.390625 11.359375 C 13.550781 11.414062 13.601562 11.488281 13.601562 11.679688 L 13.601562 11.929688 L 13.183594 11.871094 C 12.953125 11.839844 12.742188 11.824219 12.71875 11.824219 C 12.089844 11.832031 12.070312 11.871094 12.097656 13.464844 L 12.121094 14.839844 L 12.574219 14.863281 C 12.832031 14.878906 13.167969 14.855469 13.320312 14.808594 L 13.601562 14.734375 L 13.601562 15.039062 C 13.601562 15.390625 13.566406 15.40625 12.671875 15.488281 C 11.617188 15.585938 10.632812 15.121094 10.222656 14.328125 C 9.945312 13.800781 9.921875 13.03125 10.152344 12.519531 C 10.335938 12.113281 10.945312 11.566406 11.382812 11.40625 C 11.769531 11.273438 13.089844 11.238281 13.390625 11.359375 Z M 17.105469 11.328125 C 17.238281 11.367188 17.28125 11.441406 17.28125 11.640625 L 17.28125 11.894531 L 16.6875 11.855469 C 16.167969 11.824219 16.078125 11.839844 15.929688 11.992188 C 15.769531 12.152344 15.761719 12.238281 15.761719 13.367188 C 15.761719 14.039062 15.800781 14.640625 15.839844 14.726562 C 15.910156 14.847656 16.015625 14.878906 16.34375 14.878906 C 16.574219 14.878906 16.878906 14.847656 17.023438 14.808594 L 17.28125 14.726562 L 17.28125 15.046875 C 17.28125 15.320312 17.257812 15.367188 17.0625 15.414062 C 16.9375 15.449219 16.519531 15.480469 16.121094 15.480469 C 15.488281 15.480469 15.34375 15.449219 14.945312 15.257812 C 13.855469 14.71875 13.398438 13.503906 13.910156 12.496094 C 14.175781 11.976562 14.710938 11.527344 15.28125 11.351562 C 15.519531 11.28125 16.847656 11.265625 17.105469 11.328125 Z M 19.761719 12.160156 L 19.761719 13.039062 L 20.398438 13.039062 L 20.398438 11.28125 L 22.480469 11.28125 L 22.480469 15.441406 L 20.398438 15.441406 L 20.398438 13.601562 L 19.761719 13.601562 L 19.761719 15.441406 L 17.679688 15.441406 L 17.679688 11.28125 L 19.761719 11.28125 Z M 25.199219 13.359375 L 25.199219 15.441406 L 23.121094 15.441406 L 23.121094 11.28125 L 25.199219 11.28125 Z M 29 13.359375 L 29.824219 15.398438 L 28.777344 15.425781 C 27.792969 15.449219 27.710938 15.433594 27.609375 15.28125 C 27.519531 15.144531 27.414062 15.121094 26.902344 15.121094 C 26.375 15.121094 26.304688 15.136719 26.265625 15.28125 C 26.230469 15.40625 26.152344 15.441406 25.910156 15.441406 C 25.734375 15.441406 25.601562 15.414062 25.601562 15.390625 C 25.601562 15.359375 25.929688 14.472656 26.328125 13.40625 C 26.734375 12.351562 27.078125 11.433594 27.105469 11.375 C 27.128906 11.304688 27.289062 11.28125 27.65625 11.296875 L 28.175781 11.320312 Z M 11.558594 16.59375 C 12.433594 16.824219 13.167969 17.375 13.558594 18.089844 C 13.742188 18.441406 13.800781 18.640625 13.824219 19.167969 C 13.871094 20.054688 13.71875 20.503906 13.144531 21.121094 C 11.871094 22.496094 9.566406 22.566406 8.238281 21.273438 C 7.648438 20.695312 7.480469 20.273438 7.480469 19.320312 C 7.480469 18.585938 7.496094 18.488281 7.71875 18.089844 C 8.105469 17.390625 8.953125 16.753906 9.734375 16.566406 C 10.199219 16.457031 11.113281 16.472656 11.558594 16.59375 Z M 6.960938 16.921875 L 6.960938 17.28125 L 5.761719 17.28125 L 5.761719 18.878906 L 6.960938 18.878906 L 6.960938 19.601562 L 5.761719 19.601562 L 5.761719 22.160156 L 2.960938 22.160156 L 2.960938 16.558594 L 6.960938 16.558594 Z M 17.414062 17.59375 L 18.519531 18.632812 L 18.542969 17.59375 L 18.566406 16.558594 L 19.441406 16.558594 L 19.441406 22.160156 L 17.71875 22.160156 L 16.464844 20.902344 L 15.199219 19.640625 L 15.199219 22.160156 L 14.320312 22.160156 L 14.320312 16.558594 L 16.3125 16.558594 Z M 24.398438 16.921875 L 24.398438 17.28125 L 23.519531 17.28125 L 23.519531 22.160156 L 20.71875 22.160156 L 20.71875 17.28125 L 19.921875 17.28125 L 19.921875 16.558594 L 24.398438 16.558594 Z M 28.878906 16.921875 L 28.878906 17.28125 L 27.601562 17.28125 L 27.601562 18.878906 L 28.878906 18.878906 L 28.878906 19.601562 L 27.601562 19.601562 L 27.601562 21.441406 L 29.039062 21.441406 L 29.039062 22.160156 L 24.800781 22.160156 L 24.800781 16.558594 L 28.878906 16.558594 Z M 4.464844 23.960938 C 4.664062 24.199219 4.679688 24.289062 4.527344 24.34375 C 4.472656 24.367188 4.34375 24.289062 4.246094 24.152344 C 4.023438 23.847656 3.601562 23.832031 3.320312 24.121094 C 3.152344 24.28125 3.121094 24.390625 3.121094 24.761719 C 3.121094 25.128906 3.152344 25.238281 3.320312 25.398438 C 3.601562 25.6875 4.007812 25.671875 4.257812 25.359375 C 4.390625 25.191406 4.472656 25.144531 4.558594 25.199219 C 4.664062 25.265625 4.65625 25.304688 4.511719 25.496094 C 4.152344 25.976562 3.367188 25.984375 3.015625 25.511719 C 2.703125 25.089844 2.761719 24.199219 3.121094 23.878906 C 3.472656 23.558594 4.144531 23.601562 4.464844 23.960938 Z M 8.910156 23.863281 C 9.023438 24.039062 8.902344 24.136719 8.71875 24.015625 C 8.488281 23.871094 8.257812 23.894531 8.199219 24.078125 C 8.136719 24.289062 8.191406 24.375 8.558594 24.558594 C 9.128906 24.847656 9.289062 25.335938 8.929688 25.671875 C 8.609375 25.96875 8.039062 25.886719 7.832031 25.511719 C 7.769531 25.382812 7.769531 25.320312 7.832031 25.257812 C 7.902344 25.183594 7.96875 25.222656 8.105469 25.390625 C 8.328125 25.671875 8.703125 25.664062 8.808594 25.375 C 8.886719 25.175781 8.753906 25.007812 8.238281 24.6875 C 7.648438 24.320312 7.960938 23.496094 8.632812 23.671875 C 8.734375 23.703125 8.863281 23.785156 8.910156 23.863281 Z M 19.414062 23.808594 C 19.671875 23.96875 19.808594 24.238281 19.671875 24.328125 C 19.59375 24.375 19.503906 24.320312 19.375 24.160156 C 19.128906 23.847656 18.71875 23.832031 18.441406 24.121094 C 18.273438 24.28125 18.238281 24.390625 18.238281 24.761719 C 18.238281 25.128906 18.273438 25.238281 18.441406 25.398438 C 18.71875 25.6875 19.128906 25.671875 19.375 25.359375 C 19.503906 25.191406 19.59375 25.144531 19.671875 25.191406 C 19.769531 25.257812 19.769531 25.296875 19.65625 25.472656 C 19.265625 26.0625 18.304688 25.96875 18.03125 25.304688 C 17.585938 24.238281 18.511719 23.238281 19.414062 23.808594 Z M 6.695312 24.679688 C 6.878906 25.207031 7.03125 25.6875 7.03125 25.734375 C 7.046875 25.960938 6.808594 25.824219 6.71875 25.558594 C 6.632812 25.289062 6.617188 25.28125 6.199219 25.28125 C 5.785156 25.28125 5.769531 25.289062 5.679688 25.558594 C 5.632812 25.710938 5.535156 25.839844 5.472656 25.839844 C 5.296875 25.839844 5.28125 25.910156 6.039062 23.777344 C 6.0625 23.710938 6.144531 23.679688 6.214844 23.695312 C 6.320312 23.710938 6.457031 23.992188 6.695312 24.679688 Z M 10.839844 23.816406 C 11.070312 24.433594 11.511719 25.792969 11.488281 25.824219 C 11.390625 25.910156 11.207031 25.753906 11.160156 25.519531 C 11.105469 25.273438 11.105469 25.273438 10.65625 25.296875 C 10.222656 25.320312 10.199219 25.328125 10.128906 25.574219 C 10.078125 25.753906 10.007812 25.839844 9.910156 25.839844 C 9.785156 25.839844 9.808594 25.71875 10.144531 24.761719 C 10.425781 23.960938 10.550781 23.679688 10.648438 23.679688 C 10.71875 23.679688 10.808594 23.742188 10.839844 23.816406 Z M 13.992188 24.585938 L 14.289062 25.457031 L 14.558594 24.601562 C 14.808594 23.824219 14.960938 23.574219 15.097656 23.703125 C 15.121094 23.726562 14.984375 24.214844 14.792969 24.777344 C 14.511719 25.601562 14.40625 25.808594 14.28125 25.824219 C 14.136719 25.839844 14.070312 25.710938 13.777344 24.816406 C 13.59375 24.257812 13.441406 23.769531 13.441406 23.726562 C 13.441406 23.695312 13.496094 23.679688 13.574219 23.695312 C 13.664062 23.710938 13.800781 23.992188 13.992188 24.585938 Z M 16.878906 24.65625 C 17.0625 25.199219 17.230469 25.6875 17.257812 25.734375 C 17.28125 25.800781 17.230469 25.839844 17.136719 25.839844 C 17.03125 25.839844 16.960938 25.761719 16.910156 25.574219 C 16.839844 25.328125 16.824219 25.320312 16.398438 25.320312 C 15.976562 25.320312 15.960938 25.328125 15.886719 25.574219 C 15.839844 25.761719 15.769531 25.839844 15.65625 25.839844 C 15.566406 25.839844 15.519531 25.800781 15.535156 25.734375 C 15.558594 25.6875 15.726562 25.199219 15.921875 24.65625 C 16.183594 23.902344 16.296875 23.679688 16.40625 23.679688 C 16.511719 23.679688 16.625 23.894531 16.878906 24.65625 Z M 21.824219 24.703125 C 22.207031 25.863281 22.199219 25.839844 22.046875 25.839844 C 21.984375 25.839844 21.886719 25.710938 21.839844 25.558594 C 21.753906 25.289062 21.734375 25.28125 21.320312 25.28125 C 20.910156 25.28125 20.886719 25.289062 20.839844 25.527344 C 20.785156 25.761719 20.609375 25.910156 20.503906 25.816406 C 20.472656 25.777344 20.648438 25.214844 21.128906 23.855469 C 21.167969 23.761719 21.265625 23.679688 21.34375 23.679688 C 21.457031 23.679688 21.550781 23.894531 21.824219 24.703125 Z M 23.824219 24.535156 L 24.320312 25.398438 L 24.320312 24.535156 C 24.320312 23.832031 24.34375 23.679688 24.441406 23.679688 C 24.542969 23.679688 24.558594 23.855469 24.558594 24.761719 C 24.558594 25.777344 24.550781 25.839844 24.40625 25.839844 C 24.289062 25.839844 24.113281 25.617188 23.769531 25.015625 L 23.28125 24.199219 L 23.28125 25.015625 C 23.28125 25.785156 23.273438 25.839844 23.121094 25.839844 C 22.96875 25.839844 22.960938 25.785156 22.960938 24.761719 C 22.960938 23.6875 22.960938 23.679688 23.144531 23.679688 C 23.289062 23.679688 23.414062 23.839844 23.824219 24.535156 Z M 26.878906 23.769531 C 26.878906 23.824219 26.664062 24.238281 26.398438 24.695312 C 26.136719 25.160156 25.921875 25.550781 25.921875 25.566406 C 25.921875 25.585938 26.152344 25.601562 26.441406 25.601562 C 26.847656 25.601562 26.960938 25.625 26.960938 25.71875 C 26.960938 25.816406 26.824219 25.839844 26.238281 25.839844 C 25.800781 25.839844 25.519531 25.808594 25.519531 25.761719 C 25.519531 25.710938 25.734375 25.296875 26 24.824219 C 26.265625 24.359375 26.480469 23.96875 26.480469 23.953125 C 26.480469 23.9375 26.265625 23.921875 26 23.921875 C 25.625 23.921875 25.519531 23.894531 25.519531 23.800781 C 25.519531 23.703125 25.648438 23.679688 26.199219 23.679688 C 26.65625 23.679688 26.878906 23.710938 26.878906 23.769531 Z M 29.121094 23.800781 C 29.121094 23.894531 29.015625 23.921875 28.640625 23.921875 L 28.160156 23.921875 L 28.160156 24.558594 L 28.558594 24.558594 C 28.863281 24.558594 28.960938 24.59375 28.960938 24.679688 C 28.960938 24.769531 28.863281 24.800781 28.558594 24.800781 L 28.160156 24.800781 L 28.160156 25.601562 L 28.640625 25.601562 C 29.015625 25.601562 29.121094 25.625 29.121094 25.71875 C 29.121094 25.816406 28.992188 25.839844 28.480469 25.839844 L 27.839844 25.839844 L 27.839844 23.679688 L 28.480469 23.679688 C 28.992188 23.679688 29.121094 23.703125 29.121094 23.800781 Z M 29.121094 23.800781 "/>
<path style=" stroke:none;fill-rule:nonzero;fill:rgb(0%,0%,0%);fill-opacity:1;" d="M 16.9375 8.65625 C 16.871094 8.847656 16.792969 9.0625 16.761719 9.136719 C 16.710938 9.265625 16.753906 9.28125 17.078125 9.28125 C 17.390625 9.28125 17.449219 9.257812 17.40625 9.152344 C 17.375 9.078125 17.320312 8.863281 17.273438 8.671875 C 17.222656 8.480469 17.152344 8.320312 17.121094 8.320312 C 17.078125 8.320312 17 8.472656 16.9375 8.65625 Z M 16.9375 8.65625 "/>
<path style=" stroke:none;fill-rule:nonzero;fill:rgb(0%,0%,0%);fill-opacity:1;" d="M 26.816406 13.902344 C 26.71875 14.160156 26.640625 14.398438 26.640625 14.433594 C 26.640625 14.457031 26.800781 14.480469 26.992188 14.480469 L 27.351562 14.480469 L 27.222656 14.015625 C 27.152344 13.769531 27.070312 13.527344 27.039062 13.496094 C 27.007812 13.464844 26.902344 13.648438 26.816406 13.902344 Z M 26.816406 13.902344 "/>
<path style=" stroke:none;fill-rule:nonzero;fill:rgb(0%,0%,0%);fill-opacity:1;" d="M 10.335938 17.375 C 10.222656 17.488281 10.199219 21.089844 10.3125 21.265625 C 10.382812 21.375 10.800781 21.414062 10.953125 21.328125 C 11.046875 21.265625 11.089844 17.648438 10.992188 17.40625 C 10.9375 17.257812 10.480469 17.230469 10.335938 17.375 Z M 10.335938 17.375 "/>
<path style=" stroke:none;fill-rule:nonzero;fill:rgb(0%,0%,0%);fill-opacity:1;" d="M 6.046875 24.457031 C 5.863281 25 5.871094 25.039062 6.230469 25.039062 L 6.550781 25.039062 L 6.382812 24.558594 C 6.296875 24.296875 6.214844 24.078125 6.199219 24.078125 C 6.183594 24.078125 6.121094 24.246094 6.046875 24.457031 Z M 6.046875 24.457031 "/>
<path style=" stroke:none;fill-rule:nonzero;fill:rgb(0%,0%,0%);fill-opacity:1;" d="M 10.609375 24.160156 C 10.535156 24.351562 10.320312 24.976562 10.320312 25.007812 C 10.320312 25.023438 10.464844 25.039062 10.640625 25.039062 C 11.007812 25.039062 11.007812 25.015625 10.800781 24.441406 C 10.710938 24.183594 10.640625 24.078125 10.609375 24.160156 Z M 10.609375 24.160156 "/>
<path style=" stroke:none;fill-rule:nonzero;fill:rgb(0%,0%,0%);fill-opacity:1;" d="M 16.214844 24.550781 C 16.144531 24.769531 16.078125 24.960938 16.078125 24.992188 C 16.078125 25.015625 16.222656 25.039062 16.40625 25.039062 C 16.65625 25.039062 16.726562 25.015625 16.695312 24.929688 C 16.671875 24.863281 16.609375 24.671875 16.550781 24.488281 C 16.496094 24.304688 16.433594 24.160156 16.40625 24.160156 C 16.375 24.160156 16.296875 24.335938 16.214844 24.550781 Z M 16.214844 24.550781 "/>
<path style=" stroke:none;fill-rule:nonzero;fill:rgb(0%,0%,0%);fill-opacity:1;" d="M 21.175781 24.503906 C 21.105469 24.742188 21.039062 24.960938 21.039062 24.984375 C 21.039062 25.015625 21.183594 25.039062 21.351562 25.039062 L 21.671875 25.039062 L 21.503906 24.558594 C 21.414062 24.296875 21.335938 24.078125 21.328125 24.078125 C 21.320312 24.078125 21.246094 24.273438 21.175781 24.503906 Z M 21.175781 24.503906 "/>
</g>
</svg>
